<svg id="new-tab-icon" data-name="New tab icon" xmlns="http://www.w3.org/2000/svg" viewBox="0 0 198.4897 173.6785">
    <path d="M56.8252,13.3215a6.2028,6.2028,0,0,0,0,12.4056h86.8393a6.2028,6.2028,0,0,0,0-12.4056Z" transform="translate(-1 -13.3215)"/>
    <path d="M25.8112,44.3355a6.2028,6.2028,0,0,1,6.2028-6.2028H168.4757a6.2028,6.2028,0,1,1,0,12.4056H32.014A6.2028,6.2028,0,0,1,25.8112,44.3355Z" transform="translate(-1 -13.3215)"/>
    <path d="M32.014,62.9439A31.0142,31.0142,0,0,0,1,93.958v62.028A31.0141,31.0141,0,0,0,32.014,187H168.4757a31.0142,31.0142,0,0,0,31.014-31.014V93.958a31.0142,31.0142,0,0,0-31.014-31.0141Z" transform="translate(-1 -13.3215)"/>
</svg>