<?xml version="1.0" encoding="utf-8"?>
<!-- Generator: Adobe Illustrator 23.1.0, SVG Export Plug-In . SVG Version: 6.00 Build 0)  -->
<svg version="1.1" id="Capa_1" xmlns="http://www.w3.org/2000/svg" xmlns:xlink="http://www.w3.org/1999/xlink" x="0px" y="0px"
	 viewBox="0 0 200 200" style="enable-background:new 0 0 200 200;" xml:space="preserve">
<title>phone</title>
<path d="M199.9,154.4v35.7c0,5.4-4.4,9.8-9.8,9.8c-0.2,0-0.3,0-0.5,0C86.4,194.7,5.3,112.1,0.1,10.4C-0.2,5,4,0.4,9.4,0.1
	c0.2,0,0.3,0,0.5,0h35.7c5.2,0,9.5,4,9.8,9.2c0.9,13.8,3.7,27.3,8.4,40.3c1.3,3.6,0.5,7.6-2.3,10.4l-8.9,8.9c-3,3-3.8,7.7-1.8,11.5
	c14,26.5,42.1,53.8,68.7,68.5c3.8,2.1,8.6,1.4,11.7-1.7l8.7-8.7c2.7-2.7,6.8-3.6,10.4-2.3c13,4.7,26.5,7.5,40.3,8.4
	C195.9,144.9,199.9,149.2,199.9,154.4z"/>
</svg>
