<?xml version="1.0" encoding="utf-8"?>
<!-- Generator: Adobe Illustrator 23.1.0, SVG Export Plug-In . SVG Version: 6.00 Build 0)  -->
<svg version="1.1" id="photoshop_x5F_svg" xmlns="http://www.w3.org/2000/svg" xmlns:xlink="http://www.w3.org/1999/xlink" x="0px" y="0px" viewBox="0 0 200 200" style="enable-background:new 0 0 200 200;" xml:space="preserve">
	<style type="text/css">
		.photoshop-fill {
			fill:#229bff;
		}
	</style>
	<path id="square" d="M180,0H20C9,0,0,8.9,0,20l0,0v160c0,11,8.9,20,20,20l0,0h160c11,0,20-8.9,20-20l0,0V20C200,9,191.1,0,180,0L180,0z M63,113.6v24.9c0,0.8-0.7,1.5-1.5,1.5h-15c-0.8,0-1.5-0.7-1.5-1.5V54.4c0-0.8,0.6-1.5,1.4-1.5L63,52c30-2,45,10,45,31c0,19.5-13.2,30.9-43.4,29.1C63.7,112.1,63,112.7,63,113.6z M162,132c-6,8-14,10-26,10c-6.2,0-12.4-1.2-18.1-3.6c-0.6-0.2-0.9-0.8-0.9-1.4v-13.3c0-1.1,1.2-1.8,2.2-1.3c8.1,4.1,28.3,7.8,28.3,0.1c0-4.3-7.9-5.8-15.6-9.5c-7.5-3.6-14.9-9.2-14.9-19c0-25.2,33.9-23.2,44.1-18.4c0.5,0.2,0.9,0.8,0.9,1.4c0,2.5,0,9.5,0,13.2c0,1.1-1.1,1.8-2.1,1.4c-7.8-3.3-25.4-6.7-25.4,0.5c0,8,27.5,8,30.5,25C166.1,123,165,128,162,132z"/>
	<g id="letters" class="photoshop-fill">
		<path d="M61.5,140c0.8,0,1.5-0.7,1.5-1.5v-24.9c0-0.9,0.7-1.5,1.6-1.5c30.2,1.8,43.4-9.6,43.4-29.1c0-21-15-33-45-31l-16.6,0.9c-0.8,0-1.4,0.7-1.4,1.5v84.1c0,0.8,0.7,1.5,1.5,1.5H61.5z"/>
		<path d="M119.2,122.4c-1-0.5-2.2,0.2-2.2,1.3V137c0,0.6,0.3,1.2,0.9,1.4c5.7,2.4,11.9,3.6,18.1,3.6c12,0,20-2,26-10c3-4,4.1-9,3-14.9c-3-17-30.5-17-30.5-25c0-7.2,17.6-3.8,25.4-0.5c1,0.4,2.1-0.3,2.1-1.4c0-3.7,0-10.7,0-13.2c0-0.6-0.4-1.2-0.9-1.4C150.9,70.8,117,68.8,117,94c0,9.8,7.4,15.4,14.9,19c7.7,3.7,15.6,5.2,15.6,9.5C147.5,130.2,127.3,126.5,119.2,122.4z"/>
	</g>
	<path id="detail" d="M63,70.4v25.2c0,0.8,0.6,1.5,1.4,1.5C79.2,97.6,90,94.7,90,82c0-9.7-8.5-14.7-25.6-13.1C63.6,68.9,63,69.6,63,70.4z"/>
</svg>