<?xml version="1.0" encoding="utf-8"?>
<!-- Generator: Adobe Illustrator 23.1.0, SVG Export Plug-In . SVG Version: 6.00 Build 0)  -->
<svg id="ilustrator-svg" xmlns="http://www.w3.org/2000/svg" viewBox="0 0 200 200">
    <style>
        .ilustrator-fill {
            fill:#fd9b00;
        }
    </style>
    <title>adobe-ilustrator-logo</title>
    <g id="letters" class="ilustrator-fill">
        <path d="M57.9,140a1.5,1.5,0,0,0,1.4-1L66,119H96.5l7.1,20a1.367,1.367,0,0,0,1.4.9h16.3a1.519,1.519,0,0,0,1.478-1.559,1.5,1.5,0,0,0-.078-.441l-29.9-85a1.5,1.5,0,0,0-1.4-1H70.9a1.52,1.52,0,0,0-1.5,1.4L69.3,55a29.341,29.341,0,0,1-1.6,7.7L41.7,138a1.478,1.478,0,0,0,1.4,2Z" transform="translate(0 0)"/>
        <circle cx="141.5" cy="56.5" r="10.5"/>
        <rect x="132" y="74" width="19" height="66" rx="1.5"/>
    </g>
    <path id="square" d="M180,0H20A19.994,19.994,0,0,0,0,19.988V20H0V180a19.994,19.994,0,0,0,19.988,20H180a19.994,19.994,0,0,0,20-19.988V180h0V20A19.994,19.994,0,0,0,180.012,0ZM103.6,139l-7.1-20H66l-6.7,20a1.5,1.5,0,0,1-1.4,1H43.1a1.476,1.476,0,0,1-1.4-2l26-75.3A29.341,29.341,0,0,0,69.3,55l.1-1.7a1.52,1.52,0,0,1,1.5-1.4H91.4a1.5,1.5,0,0,1,1.4,1l29.9,85a1.519,1.519,0,0,1-1.4,2H105A1.367,1.367,0,0,1,103.6,139Zm45.9,1h-16a1.538,1.538,0,0,1-1.5-1.5v-63a1.538,1.538,0,0,1,1.5-1.5h16a1.538,1.538,0,0,1,1.5,1.5v63A1.538,1.538,0,0,1,149.5,140Zm-8-73A10.5,10.5,0,1,1,152,56.5h0A10.5,10.5,0,0,1,141.5,67Z" transform="translate(0 0)"/>
    <polygon id="detail" points="81 68 92 102 71 102 81 68"/>
</svg>