<?xml version="1.0" encoding="utf-8"?>
<!-- Generator: Adobe Illustrator 23.1.0, SVG Export Plug-In . SVG Version: 6.00 Build 0)  -->
<svg version="1.1" id="premiere_x5F_svg" xmlns="http://www.w3.org/2000/svg" xmlns:xlink="http://www.w3.org/1999/xlink" x="0px" y="0px" viewBox="0 0 200 200" style="enable-background:new 0 0 200 200;" xml:space="preserve">
	<style type="text/css">
		.premiere-fill {
			fill:#9999ff;
		}
	</style>
	<rect id="letters" x="25" y="25" class="premiere-fill" width="150" height="150"/>
	<path id="square" d="M66,112v28H47.5V52H66c25-1,44,5,44,30C110,104,95,114,66,112z M180,0H20C9,0,0,8.9,0,20c0,0,0,0,0,0v160c0,11,8.9,20,20,20c0,0,0,0,0,0h160c11,0,20-8.9,20-20c0,0,0,0,0,0V20C200,9,191.1,0,180,0C180,0,180,0,180,0z M163,90.5c-8-0.5-17,1.5-21.5,6V140H122V83c0.1-3.3-0.1-6.7-0.5-10H137c2,0,2.8,4.7,3,9c7-7,14-10,23-10V90.5z"/>
	<path id="detail" d="M66,69v28c17.1,0.8,26-3.7,26-15C92,71,82.4,67.2,66,69z"/>
</svg>
