<?xml version="1.0" encoding="utf-8"?>
<!-- Generator: Adobe Illustrator 23.1.0, SVG Export Plug-In . SVG Version: 6.00 Build 0)  -->
<svg version="1.1" id="behance_x5F_svg"
	xmlns="http://www.w3.org/2000/svg"
	xmlns:xlink="http://www.w3.org/1999/xlink" x="0px" y="0px" viewBox="0 0 200 200" style="enable-background:new 0 0 200 200;" xml:space="preserve">
	<style type="text/css">
	.st0{fill:#FFFFFF;}
	</style>
	<title>behance-logo</title>
	<path id="square" d="M20,0h160c11,0,20,9,20,20v160c0,11-9,20-20,20H20c-11,0-20-9-20-20V20C0,9,9,0,20,0z"/>
	<g id="letters">
		<path class="st0" d="M30,56v87h44.8c16.6,0,26.9-12.8,26.9-24.3c0-20.5-14.1-21.8-14.1-21.8S99.1,91.8,99.1,79s-7.7-23-24.3-23H30z
		"/>
		<path class="st0" d="M124.7,113.6h46.1c0-16.6-7.7-37.1-30.7-37.1c-21.8,0-30.7,16.6-30.7,32c0,16.6,6.4,34.5,30.7,34.5
		c26.9,0,29.4-20.5,29.4-20.5h-16.6c0,0-2.6,7.7-12.8,7.7C128.5,130.2,124.7,120.6,124.7,113.6z"/>
		<rect x="120.8" y="59.2" class="st0" width="37.1" height="9"/>
	</g>
	<g id="details">
		<path d="M50.5,71.4v17.9h19.8c2.2,0,4.5-0.5,6.4-1.6c4.1-2.1,5.7-7.1,3.5-11.2c-0.8-1.5-2-2.8-3.5-3.5c-2-1.1-4.2-1.6-6.4-1.6
		L50.5,71.4z"/>
		<path d="M50.5,104.6v23h19.8c2.5,0,4.9-0.6,7.1-1.9c5.3-3.6,6.7-10.7,3.2-16c-0.8-1.2-1.9-2.3-3.2-3.2c-2.1-1.3-4.6-2-7.1-1.9H50.5
		z"/>
		<path d="M125.3,103.3h29.4c0-3.8-3.2-14.1-14.7-14.1S125.3,99.5,125.3,103.3z"/>
	</g>
</svg>
