<?xml version="1.0" encoding="utf-8"?>
<!-- Generator: Adobe Illustrator 23.1.0, SVG Export Plug-In . SVG Version: 6.00 Build 0)  -->
<svg version="1.1" id="github_x5F_svg"
	xmlns="http://www.w3.org/2000/svg"
	xmlns:xlink="http://www.w3.org/1999/xlink" x="0px" y="0px" viewBox="0 0 200 200" style="enable-background:new 0 0 200 200;" xml:space="preserve">
	<style type="text/css">
	.st0{fill:#FFFFFF;}
	</style>
	<path id="circle" d="M200,100c0,45-29.7,83-70.5,95.6c-9.3,2.9-19.2,4.4-29.5,4.4c-10.4,0-20.4-1.6-29.8-4.5
	C29.5,182.8,0,144.8,0,100C0,44.8,44.8,0,100,0S200,44.8,200,100z"/>
	<path id="cat" class="st0" d="M154.9,104.6c-0.5,1.5-1,3-1.7,4.5c12.3-0.2,24.7,1.7,37.1,2.3v4.3c-13.2-1.1-26.3-3-39.4-2.3
	c-8.2,13.4-24.6,20.2-44,21.4c19.3,5.3,19.3,32.8,19.3,32.8V185c0,4.4,1.3,8,3.3,10.5c-9.3,2.9-19.2,4.4-29.5,4.4
	c-10.4,0-20.4-1.6-29.8-4.5c2.3-2.9,3.8-6.8,3.8-10.7v-17.4c0.1-2.5,0.4-5.1,0.8-7.6h-16c-5.2,0.1-10.2-1.9-14.1-5.4
	c-3.3-3.2-5.5-17.4-12-21.7c-6.5-4.4,4.4-6.6,12,4.3c6.7,9.6,14.1,9.8,14.1,9.8c12.1,1,19.5-0.8,23.1-4.5c2.8-3.7,6.8-6.4,11.3-7.6
	c-19.8-1.1-36.5-7.2-44.5-21.4c-12.9-0.7-25.8,1.2-38.8,2.3v-4.3c12.4-0.6,24.6-2.4,36.8-2.3c-0.6-1.4-1.1-3-1.5-4.5
	c-12.2-0.8-24.3-0.7-36.4,0.3v-4.3c11.8-0.5,23.7-0.6,35.4-0.2c-0.5-2.9-0.7-5.8-0.7-8.7c0.1-7.6,2.6-15,7.1-21.1
	C49,66.1,45,53.5,51.4,44c8.9-0.3,16.7,3,23.8,8.8c16.1-6,33.9-6,50.1,0c7.1-5.8,14.9-9.2,23.8-8.9c6.3,9.8,2.2,22.6,0.6,26.8
	c4.5,6.1,6.9,13.4,7,21c0,2.9-0.3,5.8-0.8,8.7c11.7-0.5,23.6-0.4,35.5,0.2v4.3C179.3,103.9,167.1,103.8,154.9,104.6z"/>
</svg>
