<?xml version="1.0" encoding="utf-8"?>
<!-- Generator: Adobe Illustrator 23.1.0, SVG Export Plug-In . SVG Version: 6.00 Build 0)  -->
<svg version="1.1" id="linkedin-svg" xmlns="http://www.w3.org/2000/svg" xmlns:xlink="http://www.w3.org/1999/xlink" x="0px"
	 y="0px" viewBox="0 0 200 200" style="enable-background:new 0 0 200 200;" xml:space="preserve">
<style type="text/css">
	.st0{fill:#FFFFFF;}
</style>
<path id="square-fill" d="M180,0H20C9,0,0,8.9,0,20l0,0v160c0,11,8.9,20,20,20l0,0h160c11,0,20-8.9,20-20l0,0V20
	C200,9,191.1,0,180,0L180,0z M68.7,158H43.9V78h24.8V158z M56.3,66.6c-7.9,0-14.3-6.4-14.3-14.3S48.4,38,56.3,38s14.3,6.4,14.3,14.3
	l0,0C70.6,60.2,64.2,66.6,56.3,66.6z M162,115.1V158h-24.8v-42.9c0,0,0-17.1-14.3-17.1c-13.3,0-13.3,17.1-13.3,17.1V158H83.9V78
	l24.3-0.5v12.4c0,0,5.7-14.3,24.3-13.8C162.9,76.1,162,104.7,162,115.1z"/>
<g id="letters">
	<rect x="43.9" y="78" class="st0" width="24.8" height="80"/>
	<path class="st0" d="M70.6,52.3c0-7.9-6.4-14.3-14.3-14.3S42,44.4,42,52.3s6.4,14.3,14.3,14.3S70.6,60.2,70.6,52.3L70.6,52.3z"/>
	<path class="st0" d="M83.9,78v80h25.7v-42.9c0,0,0-17.1,13.3-17.1c14.3,0,14.3,17.1,14.3,17.1V158H162v-42.9c0-10.5,1-39-29.5-39
		c-18.6-0.5-24.3,13.8-24.3,13.8V77.5L83.9,78z"/>
</g>
</svg>
