<?xml version="1.0" encoding="utf-8"?>
<!-- Generator: Adobe Illustrator 23.1.0, SVG Export Plug-In . SVG Version: 6.00 Build 0)  -->
<svg id="Monograma" xmlns="http://www.w3.org/2000/svg" viewBox="0 0 1782.512 1920"><title>monograma</title><path id="Trazado" d="M1598.184,644.045c79.4-59.546,121.142-171.2,121.142-289.111q0-170.967-120.492-262.951T1257.368,0H483.087V221.968H823V1419.074c0,88.671-22.261,157.141-65.92,205.465q-65.49,72.527-186.478,72.5-122,0-188.492-73c-44.322-48.655-65.254-116.986-65.254-204.968H68.744c0,157.969,42.077,280.972,128.4,368.954C283.445,1876.009,405.641,1920,564.963,1920c156.617,0,279.433-43.8,367.083-131.476q131.268-131.268,131.475-368.7l2.623-638.914h241.231c83.979,0,175.9,15.678,221.248,52q68.016,54.521,68,154.492,0,98.979-64.992,153.471c-43.329,36.346-106.8,52.025-185.454,52.025l-74.931,2.481v221.968l132.914-2.481c140.637,0,251.605-31.519,327.94-99.52,76.336-67.973,119.155-165.235,119.155-289.2C1851.256,926.89,1820.4,693.667,1598.184,644.045ZM1414.776,514.421q-53.526,44.5-154.492,44.488h-194.14V221.968h180.148q108.956,0,165.476,41.48,56.465,41.52,56.492,121.485Q1468.26,469.92,1414.776,514.421Z" transform="translate(-68.744)"/></svg>