<svg id="Capa_1" data-name="Capa 1" xmlns="http://www.w3.org/2000/svg" viewBox="0 0 200 192.669"><title>see-on-the-web</title><path d="M174.52,147.419l23.5-14.852a4.238,4.238,0,0,0-1.167-7.681l-17.9-4.8a91.123,91.123,0,1,0-54.011,59.634l3.607,13.463a4.238,4.238,0,0,0,7.681,1.167l14.513-22.969,23.1,23.1a5.3,5.3,0,0,0,7.512,0l16.359-16.359a5.3,5.3,0,0,0,0-7.511Zm-2.3-47.21a80.04,80.04,0,0,1-3,17.271l-14.344-3.84L137.579,109q.271-4.377.319-8.8Zm.117-8.488h-34.5a181.869,181.869,0,0,0-4.35-35.01h29.377A80.582,80.582,0,0,1,172.335,91.721Zm-14.7-43.5H131.256c-3.649-12.286-8.805-22.99-15.468-30.692A81.233,81.233,0,0,1,157.631,48.224Zm-52.187,58.753,7.289,27.181H56.759A161.463,161.463,0,0,1,52.8,100.209H129.41c-.032,2.185-.106,4.371-.212,6.545l-18.555-4.975A4.24,4.24,0,0,0,105.444,106.977ZM52.876,91.721a168.793,168.793,0,0,1,4.71-35.01h67.04a168.793,168.793,0,0,1,4.71,35.01ZM91.239,13.744a82.674,82.674,0,0,1,12.317.923c8.158,8.275,14.386,20.041,18.682,33.557H59.974C64.26,34.74,70.477,23,78.614,14.72A81.22,81.22,0,0,1,91.239,13.744Zm-24.921,3.9C59.708,25.34,54.584,36,50.956,48.224H24.847A81.306,81.306,0,0,1,66.318,17.648Zm-46.7,39.063H48.728a181.869,181.869,0,0,0-4.35,35.01H10.142A80.582,80.582,0,0,1,19.616,56.711Zm-9.357,43.5H44.314a175.293,175.293,0,0,0,3.639,33.949H20.189A80.607,80.607,0,0,1,10.259,100.209ZM25.61,142.645H50.054c3.374,11.829,8.222,21.94,14.556,28.942A81.223,81.223,0,0,1,25.61,142.645Zm78.646,32.379a82.011,82.011,0,0,1-26.364-.053c-8.392-7.3-14.672-18.735-18.863-32.326H115l2.3,8.572,1.082,4.032C114.632,163.322,109.921,170.112,104.256,175.024Zm13.219-3.3a45.559,45.559,0,0,0,3.978-5.029l.86,3.2C120.721,170.558,119.109,171.173,117.475,171.725ZM177.7,185.612,153.589,161.5l-.913-.913a4.237,4.237,0,0,0-6.588.732l-7.2,11.405-4.986,7.893-1.188-4.424-2.674-9.983-2.7-10.132-2.472-9.23-1.125-4.2h-.551c.095-.318.191-.647.286-.965l-2.016-7.522L115.8,113.067l12.625,3.384,8.328,2.239,12.816,3.437,16.444,4.4,9.813,2.62,7.522,2.016-12.115,7.649-5.729,3.618v.212h-.34l-.509.318a4.245,4.245,0,0,0-.732,6.589l24.921,24.921Z" transform="translate(0 -3.665)"/></svg>