<?xml version="1.0" encoding="utf-8"?>
<!-- Generator: Adobe Illustrator 23.1.0, SVG Export Plug-In . SVG Version: 6.00 Build 0)  -->
<svg version="1.1" id="new-tab-icon" xmlns="http://www.w3.org/2000/svg" xmlns:xlink="http://www.w3.org/1999/xlink" x="0px" y="0px" viewBox="0 0 200 200" style="enable-background:new 0 0 200 200;" xml:space="preserve">
	<style type="text/css">
		.white-fill{fill:#FFFFFF;}
	</style>
	<polygon class="white-fill" points="189.8,120 189.8,30.2 167.8,9.5 77,9.5 53.2,30.2 53.2,49 20,54.9 10.5,80 10.5,170.5 34.4,191.1 104.5,191.1 140,182 154.1,150.8 170.6,149.4 "/>
	<path d="M160,0l2,0c21.2,1,38,18.5,38,40l0,0v80l0,2c-1,21.2-18.5,38-40,38l0,0l0,2c-1,21.2-18.5,38-40,38l0,0H40l-2,0c-21.2-1-38-18.5-38-40l0,0V80l0-2c1-21.2,18.5-38,40-38l0,0l0-2c1-21.2,18.5-38,40-38l0,0H160z M40,60l-1.5,0.1C28.2,60.8,20,69.5,20,80l0,0v80l0.1,1.5C20.8,171.8,29.5,180,40,180l0,0h80l1.5-0.1c10.3-0.8,18.5-9.4,18.5-19.9l0,0H80l-2,0c-21.2-1-38-18.5-38-40l0,0V60z M160,20H80l-1.5,0.1C68.2,20.8,60,29.5,60,40l0,0v80l0.1,1.5C60.8,131.8,69.5,140,80,140l0,0h80c11,0,20-9,20-20l0,0V40l-0.1-1.5C179.2,28.2,170.5,20,160,20L160,20z M150,40c3.7,0,6.6,1.8,8.3,4.4c0.1,0.1,0.2,0.3,0.3,0.4c0.3,0.5,0.6,1,0.8,1.6c0.1,0.2,0.1,0.3,0.2,0.5c0.4,1.2,0.6,2.5,0.5,3.7l0,39.4c0,5.5-4.5,10-10,10c-5.1,0-9.4-3.9-9.9-8.8L140,90V74.1l-32.9,32.9c-3.9,3.9-10.2,3.9-14.1,0c-3.6-3.6-3.9-9.3-0.8-13.2l0.8-0.9L125.8,60H110c-5.1,0-9.4-3.9-9.9-8.8L100,50c0-5.1,3.9-9.4,8.8-9.9L110,40H150z"/>
</svg>