<?xml version="1.0" encoding="utf-8"?>
<!-- Generator: Adobe Illustrator 23.1.0, SVG Export Plug-In . SVG Version: 6.00 Build 0)  -->
<svg version="1.1" id="Capa_1" xmlns="http://www.w3.org/2000/svg" xmlns:xlink="http://www.w3.org/1999/xlink" x="0px" y="0px"
	 viewBox="0 0 147.8 200" style="enable-background:new 0 0 147.8 200;" xml:space="preserve">
<title>spot-marked</title>
<path d="M74.2,0.1h-0.6C4.3,0.6-13.8,75.4,9.8,116.1c9.9,17,39.3,57.9,54.6,78.9c3.9,5.3,11.3,6.4,16.5,2.5c1-0.7,1.8-1.6,2.5-2.5
	c15.3-21,44.8-61.9,54.6-78.9C161.6,75.4,143.5,0.6,74.2,0.1z M73.6,97.9c-11.6,0-20.9-9.4-20.9-20.9c0-11.6,9.4-20.9,20.9-20.9
	c11.6,0,20.9,9.4,20.9,20.9S85.2,97.9,73.6,97.9C73.6,97.9,73.6,97.9,73.6,97.9z"/>
</svg>
