<?xml version="1.0" encoding="utf-8"?>
<!-- Generator: Adobe Illustrator 23.1.0, SVG Export Plug-In . SVG Version: 6.00 Build 0)  -->
<svg id="whatsapp_svg"
    xmlns="http://www.w3.org/2000/svg" viewBox="0 0 199 200">
    <title>whatsapp</title>
    <path id="isologo" d="M100.4,0A99.166,99.166,0,0,0,14.5,148.6L.5,200,53,186.2A99.111,99.111,0,0,0,170.5,29.1,98.161,98.161,0,0,0,100.4,0m.1,16.7a82.4,82.4,0,0,1-.1,164.8A81.026,81.026,0,0,1,58.5,170l-3-1.7-31.2,8.2,8.3-30.4-2-3.2A82.406,82.406,0,0,1,100.5,16.7M65.3,53.3a9.135,9.135,0,0,0-6.6,3.1C56.5,58.9,50,65,50,77.1c0,12.2,8.9,23.9,10,25.6,1.4,1.7,17.6,26.7,42.5,37.3a107.988,107.988,0,0,0,14.1,5.3,34.258,34.258,0,0,0,15.6,1c4.8-.7,14.6-6,16.7-11.8s2.1-10.7,1.5-11.8c-.7-1-2.3-1.6-4.8-2.7-2.5-1.4-14.7-7.4-16.9-8.2-2.3-.8-3.7-1.2-5.6,1.2-1.6,2.5-6.4,8.1-7.8,9.7-1.5,1.7-2.9,1.9-5.3.7-2.6-1.3-10.6-3.9-20-12.3A75.663,75.663,0,0,1,76.2,93.9c-1.2-2.4-.1-3.9,1.1-5A33.016,33.016,0,0,0,81,84.5a14.572,14.572,0,0,0,2.5-4.1,4.589,4.589,0,0,0-.2-4.3c-.6-1.1-5.6-13.5-7.7-18.4-2-4.8-4-4.2-5.6-4.3C68.6,53.4,67,53.3,65.3,53.3Z" transform="translate(-0.5)"/>
</svg>